<mxfile host="app.diagrams.net" modified="2024-02-28T19:59:26.335Z" agent="Mozilla/5.0 (X11; Linux x86_64; rv:122.0) Gecko/20100101 Firefox/122.0" etag="uvzK2f59oAwkdOILocyQ" version="23.1.4" type="github">
  <diagram name="Page-1" id="2YBvvXClWsGukQMizWep">
    <mxGraphModel dx="2017" dy="569" grid="1" gridSize="10" guides="1" tooltips="1" connect="1" arrows="1" fold="1" page="1" pageScale="1" pageWidth="850" pageHeight="1100" math="0" shadow="0">
      <root>
        <mxCell id="0" />
        <mxCell id="1" parent="0" />
        <mxCell id="rCQYXWv0gWb4d6cG3vs2-90" value="" style="shape=umlLifeline;perimeter=lifelinePerimeter;whiteSpace=wrap;html=1;container=1;dropTarget=0;collapsible=0;recursiveResize=0;outlineConnect=0;portConstraint=eastwest;newEdgeStyle={&quot;curved&quot;:0,&quot;rounded&quot;:0};participant=umlActor;" vertex="1" parent="1">
          <mxGeometry x="-60" y="40" width="20" height="1000" as="geometry" />
        </mxCell>
        <mxCell id="aM9ryv3xv72pqoxQDRHE-1" value=": Main" style="shape=umlLifeline;perimeter=lifelinePerimeter;whiteSpace=wrap;html=1;container=0;dropTarget=0;collapsible=0;recursiveResize=0;outlineConnect=0;portConstraint=eastwest;newEdgeStyle={&quot;edgeStyle&quot;:&quot;elbowEdgeStyle&quot;,&quot;elbow&quot;:&quot;vertical&quot;,&quot;curved&quot;:0,&quot;rounded&quot;:0};fontStyle=4" parent="1" vertex="1">
          <mxGeometry x="40" y="40" width="100" height="1000" as="geometry" />
        </mxCell>
        <mxCell id="aM9ryv3xv72pqoxQDRHE-2" value="" style="html=1;points=[];perimeter=orthogonalPerimeter;outlineConnect=0;targetShapes=umlLifeline;portConstraint=eastwest;newEdgeStyle={&quot;edgeStyle&quot;:&quot;elbowEdgeStyle&quot;,&quot;elbow&quot;:&quot;vertical&quot;,&quot;curved&quot;:0,&quot;rounded&quot;:0};" parent="aM9ryv3xv72pqoxQDRHE-1" vertex="1">
          <mxGeometry x="45" y="70" width="10" height="700" as="geometry" />
        </mxCell>
        <mxCell id="aM9ryv3xv72pqoxQDRHE-5" value="br_plus: BinaryOperator" style="shape=umlLifeline;perimeter=lifelinePerimeter;whiteSpace=wrap;html=1;container=0;dropTarget=0;collapsible=0;recursiveResize=0;outlineConnect=0;portConstraint=eastwest;newEdgeStyle={&quot;edgeStyle&quot;:&quot;elbowEdgeStyle&quot;,&quot;elbow&quot;:&quot;vertical&quot;,&quot;curved&quot;:0,&quot;rounded&quot;:0};fontStyle=4" parent="1" vertex="1">
          <mxGeometry x="180" y="100" width="100" height="940" as="geometry" />
        </mxCell>
        <mxCell id="rCQYXWv0gWb4d6cG3vs2-32" value="" style="html=1;points=[];perimeter=orthogonalPerimeter;outlineConnect=0;targetShapes=umlLifeline;portConstraint=eastwest;newEdgeStyle={&quot;edgeStyle&quot;:&quot;elbowEdgeStyle&quot;,&quot;elbow&quot;:&quot;vertical&quot;,&quot;curved&quot;:0,&quot;rounded&quot;:0};" vertex="1" parent="aM9ryv3xv72pqoxQDRHE-5">
          <mxGeometry x="45" y="190" width="10" height="100" as="geometry" />
        </mxCell>
        <mxCell id="aM9ryv3xv72pqoxQDRHE-7" value="&amp;lt;&amp;lt;create&amp;gt;&amp;gt;" style="html=1;verticalAlign=bottom;endArrow=block;edgeStyle=elbowEdgeStyle;elbow=vertical;curved=0;rounded=0;dashed=1;" parent="1" source="aM9ryv3xv72pqoxQDRHE-2" edge="1">
          <mxGeometry x="0.0588" relative="1" as="geometry">
            <mxPoint x="195" y="130" as="sourcePoint" />
            <Array as="points">
              <mxPoint x="180" y="120" />
            </Array>
            <mxPoint x="180" y="120" as="targetPoint" />
            <mxPoint as="offset" />
          </mxGeometry>
        </mxCell>
        <mxCell id="rCQYXWv0gWb4d6cG3vs2-2" value="o1: Operand" style="shape=umlLifeline;perimeter=lifelinePerimeter;whiteSpace=wrap;html=1;container=0;dropTarget=0;collapsible=0;recursiveResize=0;outlineConnect=0;portConstraint=eastwest;newEdgeStyle={&quot;edgeStyle&quot;:&quot;elbowEdgeStyle&quot;,&quot;elbow&quot;:&quot;vertical&quot;,&quot;curved&quot;:0,&quot;rounded&quot;:0};fontStyle=4" vertex="1" parent="1">
          <mxGeometry x="300" y="140" width="100" height="900" as="geometry" />
        </mxCell>
        <mxCell id="rCQYXWv0gWb4d6cG3vs2-4" value="o2: Operand" style="shape=umlLifeline;perimeter=lifelinePerimeter;whiteSpace=wrap;html=1;container=0;dropTarget=0;collapsible=0;recursiveResize=0;outlineConnect=0;portConstraint=eastwest;newEdgeStyle={&quot;edgeStyle&quot;:&quot;elbowEdgeStyle&quot;,&quot;elbow&quot;:&quot;vertical&quot;,&quot;curved&quot;:0,&quot;rounded&quot;:0};fontStyle=4" vertex="1" parent="1">
          <mxGeometry x="420" y="180" width="100" height="860" as="geometry" />
        </mxCell>
        <mxCell id="rCQYXWv0gWb4d6cG3vs2-40" value="" style="html=1;points=[];perimeter=orthogonalPerimeter;outlineConnect=0;targetShapes=umlLifeline;portConstraint=eastwest;newEdgeStyle={&quot;edgeStyle&quot;:&quot;elbowEdgeStyle&quot;,&quot;elbow&quot;:&quot;vertical&quot;,&quot;curved&quot;:0,&quot;rounded&quot;:0};" vertex="1" parent="rCQYXWv0gWb4d6cG3vs2-4">
          <mxGeometry x="45" y="170" width="10" height="20" as="geometry" />
        </mxCell>
        <mxCell id="rCQYXWv0gWb4d6cG3vs2-6" value="o3: Operand" style="shape=umlLifeline;perimeter=lifelinePerimeter;whiteSpace=wrap;html=1;container=0;dropTarget=0;collapsible=0;recursiveResize=0;outlineConnect=0;portConstraint=eastwest;newEdgeStyle={&quot;edgeStyle&quot;:&quot;elbowEdgeStyle&quot;,&quot;elbow&quot;:&quot;vertical&quot;,&quot;curved&quot;:0,&quot;rounded&quot;:0};fontStyle=4" vertex="1" parent="1">
          <mxGeometry x="550" y="220" width="100" height="820" as="geometry" />
        </mxCell>
        <mxCell id="rCQYXWv0gWb4d6cG3vs2-49" value="" style="html=1;points=[];perimeter=orthogonalPerimeter;outlineConnect=0;targetShapes=umlLifeline;portConstraint=eastwest;newEdgeStyle={&quot;edgeStyle&quot;:&quot;elbowEdgeStyle&quot;,&quot;elbow&quot;:&quot;vertical&quot;,&quot;curved&quot;:0,&quot;rounded&quot;:0};" vertex="1" parent="rCQYXWv0gWb4d6cG3vs2-6">
          <mxGeometry x="45" y="220" width="10" height="20" as="geometry" />
        </mxCell>
        <mxCell id="rCQYXWv0gWb4d6cG3vs2-8" value="System.out: PrintStream" style="shape=umlLifeline;perimeter=lifelinePerimeter;whiteSpace=wrap;html=1;container=0;dropTarget=0;collapsible=0;recursiveResize=0;outlineConnect=0;portConstraint=eastwest;newEdgeStyle={&quot;edgeStyle&quot;:&quot;elbowEdgeStyle&quot;,&quot;elbow&quot;:&quot;vertical&quot;,&quot;curved&quot;:0,&quot;rounded&quot;:0};fontStyle=4" vertex="1" parent="1">
          <mxGeometry x="660" y="40" width="100" height="1000" as="geometry" />
        </mxCell>
        <mxCell id="rCQYXWv0gWb4d6cG3vs2-9" value="" style="html=1;points=[];perimeter=orthogonalPerimeter;outlineConnect=0;targetShapes=umlLifeline;portConstraint=eastwest;newEdgeStyle={&quot;edgeStyle&quot;:&quot;elbowEdgeStyle&quot;,&quot;elbow&quot;:&quot;vertical&quot;,&quot;curved&quot;:0,&quot;rounded&quot;:0};" vertex="1" parent="rCQYXWv0gWb4d6cG3vs2-8">
          <mxGeometry x="45" y="380" width="10" height="60" as="geometry" />
        </mxCell>
        <mxCell id="rCQYXWv0gWb4d6cG3vs2-10" value="br_smallerThan: BinaryOperator" style="shape=umlLifeline;perimeter=lifelinePerimeter;whiteSpace=wrap;html=1;container=0;dropTarget=0;collapsible=0;recursiveResize=0;outlineConnect=0;portConstraint=eastwest;newEdgeStyle={&quot;edgeStyle&quot;:&quot;elbowEdgeStyle&quot;,&quot;elbow&quot;:&quot;vertical&quot;,&quot;curved&quot;:0,&quot;rounded&quot;:0};fontStyle=4" vertex="1" parent="1">
          <mxGeometry x="770" y="500" width="100" height="540" as="geometry" />
        </mxCell>
        <mxCell id="rCQYXWv0gWb4d6cG3vs2-60" value="" style="html=1;points=[];perimeter=orthogonalPerimeter;outlineConnect=0;targetShapes=umlLifeline;portConstraint=eastwest;newEdgeStyle={&quot;edgeStyle&quot;:&quot;elbowEdgeStyle&quot;,&quot;elbow&quot;:&quot;vertical&quot;,&quot;curved&quot;:0,&quot;rounded&quot;:0};" vertex="1" parent="rCQYXWv0gWb4d6cG3vs2-10">
          <mxGeometry x="45" y="110" width="10" height="100" as="geometry" />
        </mxCell>
        <mxCell id="rCQYXWv0gWb4d6cG3vs2-12" value="o4: Operand" style="shape=umlLifeline;perimeter=lifelinePerimeter;whiteSpace=wrap;html=1;container=0;dropTarget=0;collapsible=0;recursiveResize=0;outlineConnect=0;portConstraint=eastwest;newEdgeStyle={&quot;edgeStyle&quot;:&quot;elbowEdgeStyle&quot;,&quot;elbow&quot;:&quot;vertical&quot;,&quot;curved&quot;:0,&quot;rounded&quot;:0};fontStyle=4" vertex="1" parent="1">
          <mxGeometry x="880" y="540" width="100" height="500" as="geometry" />
        </mxCell>
        <mxCell id="rCQYXWv0gWb4d6cG3vs2-79" value="" style="html=1;points=[];perimeter=orthogonalPerimeter;outlineConnect=0;targetShapes=umlLifeline;portConstraint=eastwest;newEdgeStyle={&quot;edgeStyle&quot;:&quot;elbowEdgeStyle&quot;,&quot;elbow&quot;:&quot;vertical&quot;,&quot;curved&quot;:0,&quot;rounded&quot;:0};direction=west;" vertex="1" parent="rCQYXWv0gWb4d6cG3vs2-12">
          <mxGeometry x="45" y="210" width="10" height="20" as="geometry" />
        </mxCell>
        <mxCell id="rCQYXWv0gWb4d6cG3vs2-15" value="" style="endArrow=classic;html=1;rounded=0;verticalAlign=bottom;dashed=1;" edge="1" parent="1">
          <mxGeometry width="50" height="50" relative="1" as="geometry">
            <mxPoint x="95" y="159.99999999999994" as="sourcePoint" />
            <mxPoint x="300" y="160" as="targetPoint" />
          </mxGeometry>
        </mxCell>
        <mxCell id="rCQYXWv0gWb4d6cG3vs2-16" value="&amp;lt;&amp;lt;create&amp;gt;&amp;gt;" style="edgeLabel;html=1;align=center;verticalAlign=bottom;resizable=0;points=[];labelPosition=center;verticalLabelPosition=middle;" vertex="1" connectable="0" parent="rCQYXWv0gWb4d6cG3vs2-15">
          <mxGeometry x="-0.2476" y="1" relative="1" as="geometry">
            <mxPoint x="-31" y="1" as="offset" />
          </mxGeometry>
        </mxCell>
        <mxCell id="rCQYXWv0gWb4d6cG3vs2-18" value="" style="endArrow=classic;html=1;rounded=0;verticalAlign=bottom;dashed=1;" edge="1" parent="1">
          <mxGeometry width="50" height="50" relative="1" as="geometry">
            <mxPoint x="95" y="199.99999999999994" as="sourcePoint" />
            <mxPoint x="420" y="200" as="targetPoint" />
          </mxGeometry>
        </mxCell>
        <mxCell id="rCQYXWv0gWb4d6cG3vs2-19" value="&amp;lt;&amp;lt;create&amp;gt;&amp;gt;" style="edgeLabel;html=1;align=center;verticalAlign=bottom;resizable=0;points=[];" vertex="1" connectable="0" parent="rCQYXWv0gWb4d6cG3vs2-18">
          <mxGeometry x="-0.2476" y="1" relative="1" as="geometry">
            <mxPoint x="-74" y="1" as="offset" />
          </mxGeometry>
        </mxCell>
        <mxCell id="rCQYXWv0gWb4d6cG3vs2-27" value="main()" style="html=1;verticalAlign=bottom;endArrow=block;edgeStyle=elbowEdgeStyle;elbow=vertical;curved=0;rounded=0;" edge="1" parent="1">
          <mxGeometry relative="1" as="geometry">
            <mxPoint x="-45" y="110" as="sourcePoint" />
            <Array as="points">
              <mxPoint x="40" y="110" />
            </Array>
            <mxPoint x="85" y="110" as="targetPoint" />
          </mxGeometry>
        </mxCell>
        <mxCell id="rCQYXWv0gWb4d6cG3vs2-28" value="" style="endArrow=classic;html=1;rounded=0;verticalAlign=bottom;dashed=1;" edge="1" parent="1" source="aM9ryv3xv72pqoxQDRHE-2">
          <mxGeometry width="50" height="50" relative="1" as="geometry">
            <mxPoint x="105" y="240" as="sourcePoint" />
            <mxPoint x="550" y="240" as="targetPoint" />
          </mxGeometry>
        </mxCell>
        <mxCell id="rCQYXWv0gWb4d6cG3vs2-29" value="&amp;lt;&amp;lt;create&amp;gt;&amp;gt;" style="edgeLabel;html=1;align=center;verticalAlign=bottom;resizable=0;points=[];" vertex="1" connectable="0" parent="rCQYXWv0gWb4d6cG3vs2-28">
          <mxGeometry x="-0.2476" y="1" relative="1" as="geometry">
            <mxPoint x="-124" y="1" as="offset" />
          </mxGeometry>
        </mxCell>
        <mxCell id="rCQYXWv0gWb4d6cG3vs2-30" value="" style="endArrow=classic;html=1;rounded=0;" edge="1" parent="1">
          <mxGeometry width="50" height="50" relative="1" as="geometry">
            <mxPoint x="599.4999999999998" y="290" as="sourcePoint" />
            <mxPoint x="235" y="289.99999999999994" as="targetPoint" />
          </mxGeometry>
        </mxCell>
        <mxCell id="rCQYXWv0gWb4d6cG3vs2-31" value="calculate(o1, o2)" style="edgeLabel;html=1;align=center;verticalAlign=bottom;resizable=0;points=[];" vertex="1" connectable="0" parent="rCQYXWv0gWb4d6cG3vs2-30">
          <mxGeometry x="-0.6315" y="-1" relative="1" as="geometry">
            <mxPoint as="offset" />
          </mxGeometry>
        </mxCell>
        <mxCell id="rCQYXWv0gWb4d6cG3vs2-33" value="" style="endArrow=classic;html=1;rounded=0;" edge="1" parent="1" target="rCQYXWv0gWb4d6cG3vs2-34">
          <mxGeometry width="50" height="50" relative="1" as="geometry">
            <mxPoint x="235" y="310" as="sourcePoint" />
            <mxPoint x="330" y="310" as="targetPoint" />
          </mxGeometry>
        </mxCell>
        <mxCell id="rCQYXWv0gWb4d6cG3vs2-35" value="evaluate()" style="edgeLabel;html=1;align=center;verticalAlign=bottom;resizable=0;points=[];" vertex="1" connectable="0" parent="rCQYXWv0gWb4d6cG3vs2-33">
          <mxGeometry x="-0.2909" relative="1" as="geometry">
            <mxPoint x="17" as="offset" />
          </mxGeometry>
        </mxCell>
        <mxCell id="rCQYXWv0gWb4d6cG3vs2-34" value="" style="html=1;points=[];perimeter=orthogonalPerimeter;outlineConnect=0;targetShapes=umlLifeline;portConstraint=eastwest;newEdgeStyle={&quot;edgeStyle&quot;:&quot;elbowEdgeStyle&quot;,&quot;elbow&quot;:&quot;vertical&quot;,&quot;curved&quot;:0,&quot;rounded&quot;:0};" vertex="1" parent="1">
          <mxGeometry x="345" y="310" width="10" height="20" as="geometry" />
        </mxCell>
        <mxCell id="rCQYXWv0gWb4d6cG3vs2-36" value="" style="endArrow=classic;html=1;rounded=0;dashed=1;" edge="1" parent="1">
          <mxGeometry width="50" height="50" relative="1" as="geometry">
            <mxPoint x="345" y="330" as="sourcePoint" />
            <mxPoint x="235" y="330" as="targetPoint" />
          </mxGeometry>
        </mxCell>
        <mxCell id="rCQYXWv0gWb4d6cG3vs2-37" value="return" style="edgeLabel;html=1;align=center;verticalAlign=bottom;resizable=0;points=[];" vertex="1" connectable="0" parent="rCQYXWv0gWb4d6cG3vs2-36">
          <mxGeometry x="-0.2909" relative="1" as="geometry">
            <mxPoint x="-16" as="offset" />
          </mxGeometry>
        </mxCell>
        <mxCell id="rCQYXWv0gWb4d6cG3vs2-38" value="" style="endArrow=classic;html=1;rounded=0;" edge="1" parent="1" target="rCQYXWv0gWb4d6cG3vs2-40">
          <mxGeometry width="50" height="50" relative="1" as="geometry">
            <mxPoint x="235" y="350" as="sourcePoint" />
            <mxPoint x="330" y="350" as="targetPoint" />
          </mxGeometry>
        </mxCell>
        <mxCell id="rCQYXWv0gWb4d6cG3vs2-39" value="evaluate()" style="edgeLabel;html=1;align=center;verticalAlign=bottom;resizable=0;points=[];" vertex="1" connectable="0" parent="rCQYXWv0gWb4d6cG3vs2-38">
          <mxGeometry x="-0.2909" relative="1" as="geometry">
            <mxPoint x="-27" as="offset" />
          </mxGeometry>
        </mxCell>
        <mxCell id="rCQYXWv0gWb4d6cG3vs2-41" value="" style="endArrow=classic;html=1;rounded=0;dashed=1;" edge="1" parent="1" source="rCQYXWv0gWb4d6cG3vs2-40">
          <mxGeometry width="50" height="50" relative="1" as="geometry">
            <mxPoint x="345" y="370" as="sourcePoint" />
            <mxPoint x="235" y="370" as="targetPoint" />
          </mxGeometry>
        </mxCell>
        <mxCell id="rCQYXWv0gWb4d6cG3vs2-42" value="return" style="edgeLabel;html=1;align=center;verticalAlign=bottom;resizable=0;points=[];" vertex="1" connectable="0" parent="rCQYXWv0gWb4d6cG3vs2-41">
          <mxGeometry x="-0.2909" relative="1" as="geometry">
            <mxPoint x="-93" as="offset" />
          </mxGeometry>
        </mxCell>
        <mxCell id="rCQYXWv0gWb4d6cG3vs2-43" value="" style="endArrow=classic;html=1;rounded=0;dashed=1;" edge="1" parent="1" target="rCQYXWv0gWb4d6cG3vs2-6">
          <mxGeometry width="50" height="50" relative="1" as="geometry">
            <mxPoint x="235" y="390" as="sourcePoint" />
            <mxPoint x="465" y="390" as="targetPoint" />
          </mxGeometry>
        </mxCell>
        <mxCell id="rCQYXWv0gWb4d6cG3vs2-44" value="return" style="edgeLabel;html=1;align=center;verticalAlign=bottom;resizable=0;points=[];" vertex="1" connectable="0" parent="rCQYXWv0gWb4d6cG3vs2-43">
          <mxGeometry x="-0.2909" relative="1" as="geometry">
            <mxPoint x="173" as="offset" />
          </mxGeometry>
        </mxCell>
        <mxCell id="rCQYXWv0gWb4d6cG3vs2-45" value="" style="endArrow=classic;html=1;rounded=0;" edge="1" parent="1" source="aM9ryv3xv72pqoxQDRHE-2">
          <mxGeometry width="50" height="50" relative="1" as="geometry">
            <mxPoint x="160" y="420" as="sourcePoint" />
            <mxPoint x="709.5" y="420" as="targetPoint" />
          </mxGeometry>
        </mxCell>
        <mxCell id="rCQYXWv0gWb4d6cG3vs2-46" value="println(o3.evaluate())" style="edgeLabel;html=1;align=center;verticalAlign=bottom;resizable=0;points=[];" vertex="1" connectable="0" parent="rCQYXWv0gWb4d6cG3vs2-45">
          <mxGeometry x="-0.8047" y="-1" relative="1" as="geometry">
            <mxPoint x="5" y="-1" as="offset" />
          </mxGeometry>
        </mxCell>
        <mxCell id="rCQYXWv0gWb4d6cG3vs2-47" value="" style="endArrow=classic;html=1;rounded=0;" edge="1" parent="1" target="rCQYXWv0gWb4d6cG3vs2-49">
          <mxGeometry width="50" height="50" relative="1" as="geometry">
            <mxPoint x="705" y="440" as="sourcePoint" />
            <mxPoint x="610" y="440.0000000000001" as="targetPoint" />
          </mxGeometry>
        </mxCell>
        <mxCell id="rCQYXWv0gWb4d6cG3vs2-48" value="evaluate()" style="edgeLabel;html=1;align=center;verticalAlign=bottom;resizable=0;points=[];" vertex="1" connectable="0" parent="rCQYXWv0gWb4d6cG3vs2-47">
          <mxGeometry x="-0.6315" y="-1" relative="1" as="geometry">
            <mxPoint x="-29" as="offset" />
          </mxGeometry>
        </mxCell>
        <mxCell id="rCQYXWv0gWb4d6cG3vs2-50" value="" style="endArrow=classic;html=1;rounded=0;dashed=1;" edge="1" parent="1">
          <mxGeometry width="50" height="50" relative="1" as="geometry">
            <mxPoint x="605" y="460" as="sourcePoint" />
            <mxPoint x="705" y="460" as="targetPoint" />
          </mxGeometry>
        </mxCell>
        <mxCell id="rCQYXWv0gWb4d6cG3vs2-51" value="return" style="edgeLabel;html=1;align=center;verticalAlign=bottom;resizable=0;points=[];" vertex="1" connectable="0" parent="rCQYXWv0gWb4d6cG3vs2-50">
          <mxGeometry x="-0.6315" y="-1" relative="1" as="geometry">
            <mxPoint x="31" as="offset" />
          </mxGeometry>
        </mxCell>
        <mxCell id="rCQYXWv0gWb4d6cG3vs2-52" value="" style="endArrow=classic;html=1;rounded=0;dashed=1;" edge="1" parent="1" target="aM9ryv3xv72pqoxQDRHE-2">
          <mxGeometry width="50" height="50" relative="1" as="geometry">
            <mxPoint x="705" y="480" as="sourcePoint" />
            <mxPoint x="475" y="480" as="targetPoint" />
          </mxGeometry>
        </mxCell>
        <mxCell id="rCQYXWv0gWb4d6cG3vs2-53" value="return" style="edgeLabel;html=1;align=center;verticalAlign=bottom;resizable=0;points=[];" vertex="1" connectable="0" parent="rCQYXWv0gWb4d6cG3vs2-52">
          <mxGeometry x="-0.2909" relative="1" as="geometry">
            <mxPoint x="-329" as="offset" />
          </mxGeometry>
        </mxCell>
        <mxCell id="rCQYXWv0gWb4d6cG3vs2-54" value="" style="endArrow=classic;html=1;rounded=0;verticalAlign=bottom;dashed=1;" edge="1" parent="1">
          <mxGeometry width="50" height="50" relative="1" as="geometry">
            <mxPoint x="95" y="520" as="sourcePoint" />
            <mxPoint x="770" y="520" as="targetPoint" />
          </mxGeometry>
        </mxCell>
        <mxCell id="rCQYXWv0gWb4d6cG3vs2-55" value="&amp;lt;&amp;lt;create&amp;gt;&amp;gt;" style="edgeLabel;html=1;align=center;verticalAlign=bottom;resizable=0;points=[];labelPosition=center;verticalLabelPosition=middle;" vertex="1" connectable="0" parent="rCQYXWv0gWb4d6cG3vs2-54">
          <mxGeometry x="-0.2476" y="1" relative="1" as="geometry">
            <mxPoint x="-191" y="1" as="offset" />
          </mxGeometry>
        </mxCell>
        <mxCell id="rCQYXWv0gWb4d6cG3vs2-56" value="" style="endArrow=classic;html=1;rounded=0;verticalAlign=bottom;dashed=1;" edge="1" parent="1">
          <mxGeometry width="50" height="50" relative="1" as="geometry">
            <mxPoint x="95" y="560" as="sourcePoint" />
            <mxPoint x="879.5" y="560" as="targetPoint" />
          </mxGeometry>
        </mxCell>
        <mxCell id="rCQYXWv0gWb4d6cG3vs2-57" value="&amp;lt;&amp;lt;create&amp;gt;&amp;gt;" style="edgeLabel;html=1;align=center;verticalAlign=bottom;resizable=0;points=[];labelPosition=center;verticalLabelPosition=middle;" vertex="1" connectable="0" parent="rCQYXWv0gWb4d6cG3vs2-56">
          <mxGeometry x="-0.2476" y="1" relative="1" as="geometry">
            <mxPoint x="-231" y="1" as="offset" />
          </mxGeometry>
        </mxCell>
        <mxCell id="rCQYXWv0gWb4d6cG3vs2-58" value="" style="endArrow=classic;html=1;rounded=0;" edge="1" parent="1" target="rCQYXWv0gWb4d6cG3vs2-60">
          <mxGeometry width="50" height="50" relative="1" as="geometry">
            <mxPoint x="930" y="610" as="sourcePoint" />
            <mxPoint x="840" y="610" as="targetPoint" />
          </mxGeometry>
        </mxCell>
        <mxCell id="rCQYXWv0gWb4d6cG3vs2-59" value="calculate(o3, o1)" style="edgeLabel;html=1;align=center;verticalAlign=bottom;resizable=0;points=[];" vertex="1" connectable="0" parent="rCQYXWv0gWb4d6cG3vs2-58">
          <mxGeometry x="-0.6315" y="-1" relative="1" as="geometry">
            <mxPoint x="-30" as="offset" />
          </mxGeometry>
        </mxCell>
        <mxCell id="rCQYXWv0gWb4d6cG3vs2-61" value="" style="endArrow=classic;html=1;rounded=0;" edge="1" parent="1" target="rCQYXWv0gWb4d6cG3vs2-63">
          <mxGeometry width="50" height="50" relative="1" as="geometry">
            <mxPoint x="815" y="630" as="sourcePoint" />
            <mxPoint x="610" y="630" as="targetPoint" />
          </mxGeometry>
        </mxCell>
        <mxCell id="rCQYXWv0gWb4d6cG3vs2-62" value="&lt;div&gt;evaluate()&lt;/div&gt;" style="edgeLabel;html=1;align=center;verticalAlign=bottom;resizable=0;points=[];" vertex="1" connectable="0" parent="rCQYXWv0gWb4d6cG3vs2-61">
          <mxGeometry x="-0.6315" y="-1" relative="1" as="geometry">
            <mxPoint x="-10" as="offset" />
          </mxGeometry>
        </mxCell>
        <mxCell id="rCQYXWv0gWb4d6cG3vs2-63" value="" style="html=1;points=[];perimeter=orthogonalPerimeter;outlineConnect=0;targetShapes=umlLifeline;portConstraint=eastwest;newEdgeStyle={&quot;edgeStyle&quot;:&quot;elbowEdgeStyle&quot;,&quot;elbow&quot;:&quot;vertical&quot;,&quot;curved&quot;:0,&quot;rounded&quot;:0};" vertex="1" parent="1">
          <mxGeometry x="595" y="630" width="10" height="20" as="geometry" />
        </mxCell>
        <mxCell id="rCQYXWv0gWb4d6cG3vs2-64" value="" style="endArrow=classic;html=1;rounded=0;dashed=1;" edge="1" parent="1" target="rCQYXWv0gWb4d6cG3vs2-60">
          <mxGeometry width="50" height="50" relative="1" as="geometry">
            <mxPoint x="605" y="650" as="sourcePoint" />
            <mxPoint x="705" y="650" as="targetPoint" />
          </mxGeometry>
        </mxCell>
        <mxCell id="rCQYXWv0gWb4d6cG3vs2-65" value="return" style="edgeLabel;html=1;align=center;verticalAlign=bottom;resizable=0;points=[];" vertex="1" connectable="0" parent="rCQYXWv0gWb4d6cG3vs2-64">
          <mxGeometry x="-0.6315" y="-1" relative="1" as="geometry">
            <mxPoint x="121" as="offset" />
          </mxGeometry>
        </mxCell>
        <mxCell id="rCQYXWv0gWb4d6cG3vs2-69" value="" style="endArrow=classic;html=1;rounded=0;" edge="1" parent="1" target="rCQYXWv0gWb4d6cG3vs2-71">
          <mxGeometry width="50" height="50" relative="1" as="geometry">
            <mxPoint x="815" y="670" as="sourcePoint" />
            <mxPoint x="610" y="670" as="targetPoint" />
          </mxGeometry>
        </mxCell>
        <mxCell id="rCQYXWv0gWb4d6cG3vs2-70" value="&lt;div&gt;evaluate()&lt;/div&gt;" style="edgeLabel;html=1;align=center;verticalAlign=bottom;resizable=0;points=[];" vertex="1" connectable="0" parent="rCQYXWv0gWb4d6cG3vs2-69">
          <mxGeometry x="-0.6315" y="-1" relative="1" as="geometry">
            <mxPoint x="36" as="offset" />
          </mxGeometry>
        </mxCell>
        <mxCell id="rCQYXWv0gWb4d6cG3vs2-71" value="" style="html=1;points=[];perimeter=orthogonalPerimeter;outlineConnect=0;targetShapes=umlLifeline;portConstraint=eastwest;newEdgeStyle={&quot;edgeStyle&quot;:&quot;elbowEdgeStyle&quot;,&quot;elbow&quot;:&quot;vertical&quot;,&quot;curved&quot;:0,&quot;rounded&quot;:0};" vertex="1" parent="1">
          <mxGeometry x="345" y="670" width="10" height="20" as="geometry" />
        </mxCell>
        <mxCell id="rCQYXWv0gWb4d6cG3vs2-72" value="" style="endArrow=classic;html=1;rounded=0;dashed=1;" edge="1" parent="1" source="rCQYXWv0gWb4d6cG3vs2-71">
          <mxGeometry width="50" height="50" relative="1" as="geometry">
            <mxPoint x="605" y="690" as="sourcePoint" />
            <mxPoint x="815" y="690" as="targetPoint" />
          </mxGeometry>
        </mxCell>
        <mxCell id="rCQYXWv0gWb4d6cG3vs2-73" value="return" style="edgeLabel;html=1;align=center;verticalAlign=bottom;resizable=0;points=[];" vertex="1" connectable="0" parent="rCQYXWv0gWb4d6cG3vs2-72">
          <mxGeometry x="-0.6315" y="-1" relative="1" as="geometry">
            <mxPoint x="325" as="offset" />
          </mxGeometry>
        </mxCell>
        <mxCell id="rCQYXWv0gWb4d6cG3vs2-74" value="" style="endArrow=classic;html=1;rounded=0;dashed=1;" edge="1" parent="1" target="rCQYXWv0gWb4d6cG3vs2-12">
          <mxGeometry width="50" height="50" relative="1" as="geometry">
            <mxPoint x="825" y="710" as="sourcePoint" />
            <mxPoint x="1285" y="710" as="targetPoint" />
          </mxGeometry>
        </mxCell>
        <mxCell id="rCQYXWv0gWb4d6cG3vs2-75" value="return" style="edgeLabel;html=1;align=center;verticalAlign=bottom;resizable=0;points=[];" vertex="1" connectable="0" parent="rCQYXWv0gWb4d6cG3vs2-74">
          <mxGeometry x="-0.6315" y="-1" relative="1" as="geometry">
            <mxPoint x="35" as="offset" />
          </mxGeometry>
        </mxCell>
        <mxCell id="rCQYXWv0gWb4d6cG3vs2-76" value="" style="endArrow=classic;html=1;rounded=0;" edge="1" parent="1" target="rCQYXWv0gWb4d6cG3vs2-78">
          <mxGeometry width="50" height="50" relative="1" as="geometry">
            <mxPoint x="95" y="730" as="sourcePoint" />
            <mxPoint x="700" y="730" as="targetPoint" />
          </mxGeometry>
        </mxCell>
        <mxCell id="rCQYXWv0gWb4d6cG3vs2-77" value="println(o4.evaluate())" style="edgeLabel;html=1;align=center;verticalAlign=bottom;resizable=0;points=[];" vertex="1" connectable="0" parent="rCQYXWv0gWb4d6cG3vs2-76">
          <mxGeometry x="-0.8047" y="-1" relative="1" as="geometry">
            <mxPoint x="5" y="-1" as="offset" />
          </mxGeometry>
        </mxCell>
        <mxCell id="rCQYXWv0gWb4d6cG3vs2-78" value="" style="html=1;points=[];perimeter=orthogonalPerimeter;outlineConnect=0;targetShapes=umlLifeline;portConstraint=eastwest;newEdgeStyle={&quot;edgeStyle&quot;:&quot;elbowEdgeStyle&quot;,&quot;elbow&quot;:&quot;vertical&quot;,&quot;curved&quot;:0,&quot;rounded&quot;:0};" vertex="1" parent="1">
          <mxGeometry x="705" y="730" width="10" height="60" as="geometry" />
        </mxCell>
        <mxCell id="rCQYXWv0gWb4d6cG3vs2-80" value="" style="endArrow=classic;html=1;rounded=0;" edge="1" parent="1">
          <mxGeometry width="50" height="50" relative="1" as="geometry">
            <mxPoint x="715" y="750" as="sourcePoint" />
            <mxPoint x="925" y="750" as="targetPoint" />
          </mxGeometry>
        </mxCell>
        <mxCell id="rCQYXWv0gWb4d6cG3vs2-81" value="evaluate()" style="edgeLabel;html=1;align=center;verticalAlign=bottom;resizable=0;points=[];" vertex="1" connectable="0" parent="rCQYXWv0gWb4d6cG3vs2-80">
          <mxGeometry x="-0.6315" y="-1" relative="1" as="geometry">
            <mxPoint x="14" y="-1" as="offset" />
          </mxGeometry>
        </mxCell>
        <mxCell id="rCQYXWv0gWb4d6cG3vs2-82" value="" style="endArrow=classic;html=1;rounded=0;dashed=1;" edge="1" parent="1" source="rCQYXWv0gWb4d6cG3vs2-79">
          <mxGeometry width="50" height="50" relative="1" as="geometry">
            <mxPoint x="815" y="770" as="sourcePoint" />
            <mxPoint x="715" y="770" as="targetPoint" />
          </mxGeometry>
        </mxCell>
        <mxCell id="rCQYXWv0gWb4d6cG3vs2-83" value="return" style="edgeLabel;html=1;align=center;verticalAlign=bottom;resizable=0;points=[];" vertex="1" connectable="0" parent="rCQYXWv0gWb4d6cG3vs2-82">
          <mxGeometry x="-0.6315" y="-1" relative="1" as="geometry">
            <mxPoint x="-119" as="offset" />
          </mxGeometry>
        </mxCell>
        <mxCell id="rCQYXWv0gWb4d6cG3vs2-84" value="" style="endArrow=classic;html=1;rounded=0;dashed=1;" edge="1" parent="1">
          <mxGeometry width="50" height="50" relative="1" as="geometry">
            <mxPoint x="705" y="790" as="sourcePoint" />
            <mxPoint x="95" y="790" as="targetPoint" />
          </mxGeometry>
        </mxCell>
        <mxCell id="rCQYXWv0gWb4d6cG3vs2-85" value="return" style="edgeLabel;html=1;align=center;verticalAlign=bottom;resizable=0;points=[];" vertex="1" connectable="0" parent="rCQYXWv0gWb4d6cG3vs2-84">
          <mxGeometry x="-0.2909" relative="1" as="geometry">
            <mxPoint x="-329" as="offset" />
          </mxGeometry>
        </mxCell>
        <mxCell id="rCQYXWv0gWb4d6cG3vs2-86" value="" style="endArrow=classic;html=1;rounded=0;dashed=1;" edge="1" parent="1" source="aM9ryv3xv72pqoxQDRHE-2">
          <mxGeometry width="50" height="50" relative="1" as="geometry">
            <mxPoint x="60" y="810" as="sourcePoint" />
            <mxPoint x="-45" y="810" as="targetPoint" />
          </mxGeometry>
        </mxCell>
        <mxCell id="rCQYXWv0gWb4d6cG3vs2-87" value="return" style="edgeLabel;html=1;align=center;verticalAlign=bottom;resizable=0;points=[];" vertex="1" connectable="0" parent="rCQYXWv0gWb4d6cG3vs2-86">
          <mxGeometry x="-0.2536" y="-1" relative="1" as="geometry">
            <mxPoint x="-20" as="offset" />
          </mxGeometry>
        </mxCell>
        <mxCell id="rCQYXWv0gWb4d6cG3vs2-26" value="" style="html=1;points=[];perimeter=orthogonalPerimeter;outlineConnect=0;targetShapes=umlLifeline;portConstraint=eastwest;newEdgeStyle={&quot;edgeStyle&quot;:&quot;elbowEdgeStyle&quot;,&quot;elbow&quot;:&quot;vertical&quot;,&quot;curved&quot;:0,&quot;rounded&quot;:0};" vertex="1" parent="1">
          <mxGeometry x="-55" y="110" width="10" height="700" as="geometry" />
        </mxCell>
      </root>
    </mxGraphModel>
  </diagram>
</mxfile>
